<svg width="19" height="34" viewBox="0 0 19 34" fill="none" xmlns="http://www.w3.org/2000/svg">
<path d="M5.94817 11.0979V23.8999C5.96296 24.8361 6.34522 25.7289 7.01246 26.3856C7.67971 27.0424 8.57843 27.4105 9.51468 27.4105C10.4509 27.4105 11.3497 27.0424 12.0169 26.3856C12.6841 25.7289 13.0664 24.8361 13.0812 23.8999L13.0928 7.11974C13.1025 6.3196 12.9533 5.5255 12.6538 4.78346C12.3543 4.04142 11.9105 3.3662 11.3481 2.79696C10.7857 2.22771 10.116 1.77576 9.37761 1.4673C8.63926 1.15883 7.84702 1 7.04683 1C6.24663 1 5.4544 1.15883 4.71604 1.4673C3.97769 1.77576 3.30791 2.22771 2.74553 2.79696C2.18315 3.3662 1.73936 4.04142 1.43988 4.78346C1.14039 5.5255 0.991182 6.3196 1.00089 7.11974V24.0129C0.984588 25.1394 1.19238 26.2579 1.61218 27.3033C2.03199 28.3488 2.65543 29.3003 3.44626 30.1027C4.23709 30.9051 5.17954 31.5422 6.2188 31.9771C7.25807 32.412 8.37341 32.6359 9.5 32.6359C10.6266 32.6359 11.7419 32.412 12.7812 31.9771C13.8205 31.5422 14.7629 30.9051 15.5537 30.1027C16.3446 29.3003 16.968 28.3488 17.3878 27.3033C17.8076 26.2579 18.0154 25.1394 17.9991 24.0129V8.22685" stroke="black" stroke-width="1.40565" stroke-miterlimit="10" stroke-linecap="round"/>
</svg>
