<svg width="20" height="19" viewBox="0 0 20 19" fill="none" xmlns="http://www.w3.org/2000/svg">
<line x1="3.39468" y1="0.69303" x2="17.3947" y2="18.693" stroke="#585858"/>
<path d="M19.6488 8.46494C19.6204 8.39998 18.9262 6.86332 17.3758 5.31584C15.9373 3.88163 13.4657 2.1709 9.84601 2.1709C6.22631 2.1709 3.75476 3.88163 2.31622 5.31584C0.765874 6.86332 0.0716382 8.39748 0.043268 8.46494C0.0147412 8.52891 0 8.59814 0 8.66816C0 8.73818 0.0147412 8.80742 0.043268 8.87138C0.0716382 8.93552 0.765874 10.4722 2.31622 12.0197C3.75476 13.4539 6.22631 15.1638 9.84601 15.1638C13.4657 15.1638 15.9373 13.4539 17.3758 12.0197C18.9262 10.4722 19.6204 8.93801 19.6488 8.87138C19.6773 8.80742 19.692 8.73818 19.692 8.66816C19.692 8.59814 19.6773 8.52891 19.6488 8.46494ZM9.84601 14.1643C7.22761 14.1643 4.9413 13.2132 3.04968 11.3384C2.25671 10.5518 1.58569 9.65151 1.05875 8.66733C1.58554 7.68331 2.25658 6.78332 3.04968 5.99713C4.9413 4.12149 7.22761 3.17035 9.84601 3.17035C12.4644 3.17035 14.7507 4.12149 16.6423 5.99713C17.4354 6.78332 18.1065 7.68331 18.6333 8.66733C18.1017 9.68427 15.4366 14.1643 9.84601 14.1643ZM9.84601 4.8361C9.08686 4.8361 8.34476 5.0608 7.71356 5.48178C7.08235 5.90276 6.59038 6.50112 6.29986 7.20118C6.00935 7.90125 5.93334 8.67158 6.08144 9.41477C6.22955 10.158 6.59511 10.8406 7.13191 11.3764C7.66871 11.9122 8.35263 12.2771 9.09719 12.4249C9.84176 12.5728 10.6135 12.4969 11.3149 12.2069C12.0162 11.9169 12.6157 11.4259 13.0375 10.7958C13.4592 10.1658 13.6843 9.42508 13.6843 8.66733C13.683 7.65163 13.2782 6.67791 12.5587 5.9597C11.8391 5.24149 10.8636 4.83742 9.84601 4.8361ZM9.84601 11.4991C9.2849 11.4991 8.73639 11.333 8.26985 11.0219C7.8033 10.7107 7.43967 10.2684 7.22495 9.751C7.01022 9.23356 6.95404 8.66419 7.0635 8.11488C7.17297 7.56557 7.44317 7.06099 7.83994 6.66496C8.2367 6.26893 8.74221 5.99923 9.29254 5.88996C9.84287 5.7807 10.4133 5.83678 10.9317 6.05111C11.4501 6.26544 11.8932 6.6284 12.2049 7.09408C12.5166 7.55976 12.683 8.10726 12.683 8.66733C12.683 9.41836 12.3841 10.1386 11.8521 10.6697C11.32 11.2008 10.5984 11.4991 9.84601 11.4991Z" fill="#585858"/>
</svg>
