<svg width="214" height="32" viewBox="0 0 214 32" fill="none" xmlns="http://www.w3.org/2000/svg">
<path d="M36.9275 23.0015L38.1042 21.1897C38.427 20.6934 38.8353 20.5973 39.1422 20.7948C40.7698 21.8621 42.4376 22.3958 43.8304 22.3958C45.2233 22.3958 45.8103 21.9021 45.8103 21.1603V21.0963C45.8103 20.077 44.2093 19.7354 42.3762 19.1778C40.0547 18.4973 37.4264 17.414 37.4264 14.196V14.1346C37.4264 10.7619 40.1481 8.87268 43.4915 8.87268C45.4794 8.90189 47.4257 9.44617 49.1404 10.4523C49.2875 10.5408 49.3944 10.6828 49.4387 10.8486C49.483 11.0144 49.4612 11.1909 49.3779 11.3409L48.2038 13.4755C48.1202 13.6283 47.9798 13.7421 47.813 13.792C47.6462 13.842 47.4664 13.8241 47.3126 13.7424C45.869 12.9739 44.4655 12.515 43.3981 12.515C42.2534 12.515 41.6637 13.0113 41.6637 13.6597V13.7237C41.6637 14.6496 43.2434 15.0846 45.0392 15.7036C47.3579 16.4774 50.0503 17.5901 50.0503 20.624V20.6854C50.0503 24.3677 47.2966 26.038 43.7077 26.038C41.3365 26.0184 39.0282 25.2734 37.0929 23.9034C36.9536 23.8039 36.8585 23.6542 36.8276 23.4859C36.7967 23.3176 36.8326 23.1439 36.9275 23.0015Z" fill="#1F1646"/>
<path d="M56.7207 9.12878H53.3346C52.9706 9.12878 52.6755 9.42386 52.6755 9.78786V25.056C52.6755 25.42 52.9706 25.7151 53.3346 25.7151H56.7207C57.0847 25.7151 57.3798 25.42 57.3798 25.056V9.78786C57.3798 9.42386 57.0847 9.12878 56.7207 9.12878Z" fill="#1F1646"/>
<path d="M61.3287 9.12932H64.7122C64.887 9.12932 65.0546 9.19876 65.1782 9.32236C65.3018 9.44596 65.3712 9.61359 65.3712 9.78839C65.3711 9.91548 65.4077 10.0399 65.4766 10.1467C65.5456 10.2535 65.6439 10.338 65.7598 10.3902C65.8757 10.4424 66.0042 10.4599 66.1298 10.4407C66.2555 10.4215 66.3729 10.3664 66.4679 10.282C67.4954 9.32133 68.8558 8.79708 70.2623 8.8198C72.1301 8.8198 73.5897 9.52423 74.5156 10.7783C74.5707 10.8529 74.6412 10.9146 74.7222 10.9595C74.8033 11.0044 74.8931 11.0313 74.9855 11.0384C75.0779 11.0455 75.1707 11.0326 75.2577 11.0006C75.3447 10.9686 75.4237 10.9183 75.4895 10.8531C76.1228 10.1981 76.8834 9.67985 77.7246 9.33016C78.5658 8.98047 79.4697 8.80679 80.3806 8.8198C83.8788 8.8198 85.9841 10.9251 85.9841 14.9169V25.0566C85.9844 25.1432 85.9676 25.2291 85.9346 25.3092C85.9016 25.3893 85.8531 25.4621 85.7918 25.5234C85.7306 25.5847 85.6578 25.6332 85.5776 25.6662C85.4975 25.6992 85.4116 25.716 85.325 25.7156H81.9389C81.8522 25.716 81.7664 25.6992 81.6863 25.6662C81.6061 25.6332 81.5333 25.5847 81.4721 25.5234C81.4108 25.4621 81.3623 25.3893 81.3293 25.3092C81.2963 25.2291 81.2795 25.1432 81.2798 25.0566V16.4645C81.2798 14.2365 80.2872 13.0918 78.5234 13.0918C76.7597 13.0918 75.6763 14.2365 75.6763 16.4645V25.0566C75.6767 25.1432 75.6599 25.2291 75.6269 25.3092C75.5939 25.3893 75.5453 25.4621 75.4841 25.5234C75.4228 25.5847 75.35 25.6332 75.2699 25.6662C75.1898 25.6992 75.1039 25.716 75.0173 25.7156H71.6338C71.5472 25.716 71.4613 25.6992 71.3812 25.6662C71.3011 25.6332 71.2283 25.5847 71.167 25.5234C71.1057 25.4621 71.0572 25.3893 71.0242 25.3092C70.9912 25.2291 70.9744 25.1432 70.9747 25.0566V16.4645C70.9747 14.2365 69.9821 13.0918 68.2184 13.0918C66.4546 13.0918 65.3739 14.2365 65.3739 16.4645V25.0566C65.3743 25.1432 65.3575 25.2291 65.3245 25.3092C65.2915 25.3893 65.2429 25.4621 65.1817 25.5234C65.1204 25.5847 65.0476 25.6332 64.9675 25.6662C64.8873 25.6992 64.8015 25.716 64.7148 25.7156H61.3287C61.2421 25.716 61.1562 25.6992 61.0761 25.6662C60.996 25.6332 60.9232 25.5847 60.8619 25.5234C60.8006 25.4621 60.7521 25.3893 60.7191 25.3092C60.6861 25.2291 60.6693 25.1432 60.6697 25.0566V9.78839C60.6697 9.61359 60.7391 9.44596 60.8627 9.32236C60.9863 9.19876 61.1539 9.12932 61.3287 9.12932Z" fill="#1F1646"/>
<path d="M89.5943 9.12859H92.9777C93.1525 9.12859 93.3202 9.19803 93.4438 9.32163C93.5674 9.44523 93.6368 9.61286 93.6368 9.78766V9.82502C93.6373 9.9512 93.6743 10.0745 93.7434 10.1801C93.8125 10.2857 93.9106 10.3691 94.026 10.4201C94.1414 10.4712 94.269 10.4878 94.3936 10.4679C94.5182 10.448 94.6344 10.3925 94.7281 10.308C95.8488 9.31183 97.3065 8.7795 98.8054 8.81907C102.674 8.81907 106.357 11.8529 106.357 17.3924V17.4538C106.357 22.9932 102.736 26.0244 98.8054 26.0244C97.3142 26.0638 95.8586 25.5656 94.7041 24.6209C94.6091 24.5419 94.4936 24.4916 94.3711 24.4758C94.2486 24.46 94.1241 24.4794 94.0121 24.5317C93.9002 24.584 93.8055 24.6671 93.739 24.7713C93.6726 24.8754 93.6371 24.9963 93.6368 25.1199V31.1556C93.6368 31.3304 93.5674 31.4981 93.4438 31.6217C93.3202 31.7453 93.1525 31.8147 92.9777 31.8147H89.5943C89.4192 31.8147 89.2513 31.7454 89.1273 31.6218C89.0033 31.4983 88.9332 31.3307 88.9325 31.1556V9.78766C88.9332 9.61262 89.0033 9.445 89.1273 9.32147C89.2513 9.19795 89.4192 9.12859 89.5943 9.12859ZM101.663 17.4538V17.3924C101.663 14.636 99.7953 12.8109 97.6099 12.8109C95.4246 12.8109 93.5861 14.636 93.5861 17.3924V17.4538C93.5861 20.2075 95.4112 22.0326 97.6099 22.0326C99.8086 22.0326 101.663 20.2395 101.663 17.4538Z" fill="#1F1646"/>
<path d="M109.565 3.12549H112.948C113.035 3.12549 113.121 3.14261 113.201 3.17586C113.282 3.20912 113.355 3.25786 113.416 3.31931C113.477 3.38076 113.526 3.45371 113.559 3.53399C113.593 3.61428 113.61 3.70033 113.61 3.78724V25.0565C113.61 25.1432 113.593 25.2292 113.559 25.3093C113.526 25.3894 113.477 25.4622 113.416 25.5235C113.354 25.5847 113.281 25.6332 113.201 25.6661C113.121 25.6991 113.035 25.7159 112.948 25.7155H109.565C109.39 25.7155 109.222 25.6461 109.099 25.5225C108.975 25.3989 108.906 25.2313 108.906 25.0565V3.78724C108.906 3.61219 108.975 3.44427 109.098 3.32025C109.222 3.19622 109.39 3.12619 109.565 3.12549Z" fill="#1F1646"/>
<path d="M116.094 17.5152V17.4538C116.094 12.7175 119.466 8.81909 124.293 8.81909C129.833 8.81909 132.37 13.1204 132.37 17.8247C132.37 18.0168 132.37 18.2249 132.349 18.4411C132.34 18.6093 132.266 18.7675 132.143 18.8831C132.021 18.9988 131.859 19.0631 131.69 19.0628H121.676C121.566 19.0632 121.458 19.0908 121.362 19.143C121.265 19.1953 121.183 19.2707 121.123 19.3624C121.063 19.4541 121.026 19.5593 121.016 19.6686C121.007 19.7779 121.024 19.8878 121.067 19.9887C121.721 21.5177 123.055 22.3128 124.83 22.3128C126.154 22.3399 127.438 21.863 128.424 20.9786C128.546 20.8796 128.698 20.8256 128.855 20.8256C129.012 20.8256 129.164 20.8796 129.286 20.9786L131.052 22.5396C131.119 22.5989 131.173 22.6709 131.211 22.7515C131.25 22.8321 131.271 22.9196 131.275 23.0088C131.279 23.0979 131.265 23.1869 131.233 23.2704C131.202 23.3539 131.154 23.4303 131.092 23.4949C129.574 25.0959 127.487 26.0698 124.768 26.0698C119.776 26.0858 116.094 22.5903 116.094 17.5152ZM126.98 16.1223C127.083 16.1222 127.184 16.0983 127.276 16.0524C127.368 16.0065 127.447 15.9399 127.509 15.8579C127.571 15.7758 127.612 15.6806 127.631 15.5797C127.649 15.4788 127.644 15.375 127.615 15.2764C127.149 13.6461 125.996 12.5948 124.293 12.5948C122.591 12.5948 121.452 13.6194 120.918 15.2631C120.885 15.3623 120.876 15.4679 120.892 15.5713C120.908 15.6746 120.948 15.7727 121.009 15.8574C121.071 15.9421 121.151 16.0111 121.244 16.0585C121.337 16.106 121.441 16.1306 121.545 16.1303L126.98 16.1223Z" fill="#1F1646"/>
<path d="M134.337 23.0015L135.514 21.1897C135.839 20.6934 136.248 20.5973 136.554 20.7948C138.182 21.8621 139.85 22.3958 141.243 22.3958C142.635 22.3958 143.223 21.9021 143.223 21.1603V21.0963C143.223 20.077 141.622 19.7354 139.788 19.1778C137.467 18.4973 134.836 17.414 134.836 14.196V14.1346C134.836 10.7619 137.56 8.87268 140.901 8.87268C142.89 8.90155 144.837 9.44584 146.553 10.4523C146.7 10.5407 146.807 10.683 146.85 10.8489C146.894 11.0149 146.872 11.1914 146.787 11.3409L145.616 13.4755C145.532 13.6283 145.392 13.7421 145.225 13.792C145.058 13.842 144.879 13.8241 144.725 13.7424C143.281 12.9739 141.875 12.515 140.81 12.515C139.663 12.515 139.076 13.0113 139.076 13.6597V13.7237C139.076 14.6496 140.656 15.0846 142.449 15.7036C144.77 16.4774 147.462 17.5901 147.462 20.624V20.6854C147.462 24.3677 144.709 26.038 141.12 26.038C138.749 26.0187 136.44 25.2738 134.505 23.9034C134.365 23.8043 134.27 23.6548 134.238 23.4865C134.207 23.3181 134.242 23.1442 134.337 23.0015Z" fill="#1F1646"/>
<path d="M150.165 21.0137V13.8093C150.164 13.6342 150.094 13.4666 149.97 13.3431C149.846 13.2195 149.678 13.1502 149.503 13.1502H148.844C148.758 13.1502 148.672 13.1331 148.591 13.0998C148.511 13.0665 148.439 13.0177 148.377 12.9562C148.316 12.8947 148.268 12.8217 148.235 12.7415C148.202 12.6612 148.185 12.5752 148.185 12.4884V9.78808C148.185 9.70153 148.202 9.61584 148.235 9.53588C148.269 9.45591 148.317 9.38326 148.378 9.32206C148.439 9.26085 148.512 9.2123 148.592 9.17918C148.672 9.14605 148.758 9.12901 148.844 9.12901H149.503C149.678 9.12902 149.846 9.05966 149.97 8.93614C150.094 8.81261 150.164 8.64498 150.165 8.46994V5.44939C150.165 5.30077 150.224 5.15825 150.329 5.05316C150.434 4.94808 150.577 4.88904 150.725 4.88904H154.309C154.458 4.88904 154.6 4.94808 154.705 5.05316C154.81 5.15825 154.869 5.30077 154.869 5.44939V8.46994C154.869 8.64474 154.939 8.81237 155.062 8.93598C155.186 9.05958 155.354 9.12901 155.528 9.12901H158.109C158.283 9.12972 158.451 9.19939 158.574 9.32284C158.697 9.44629 158.767 9.6135 158.768 9.78808V12.4911C158.768 12.6661 158.698 12.8341 158.575 12.9581C158.451 13.0821 158.284 13.1522 158.109 13.1529H155.528C155.354 13.1529 155.186 13.2223 155.062 13.3459C154.939 13.4695 154.869 13.6371 154.869 13.8119V20.2399C154.869 21.3233 155.334 21.8409 156.385 21.8409C156.88 21.8416 157.372 21.7669 157.845 21.6195C157.943 21.5865 158.047 21.5773 158.149 21.5926C158.252 21.6079 158.349 21.6473 158.433 21.7074C158.517 21.7676 158.586 21.8469 158.633 21.9387C158.681 22.0306 158.706 22.1324 158.706 22.2358V24.4185C158.706 24.8935 158.56 25.1176 158.336 25.2324C157.3 25.7554 156.152 26.0148 154.992 25.9875C152.116 25.9955 150.165 24.8508 150.165 21.0137Z" fill="#1F1646"/>
<path d="M160.676 20.9499V20.8858C160.676 17.2649 163.43 15.5945 167.36 15.5945C168.741 15.5817 170.113 15.812 171.413 16.275V16.0081C171.413 14.0576 170.207 12.9742 167.856 12.9742C166.511 12.9671 165.174 13.1956 163.907 13.6493C163.825 13.6777 163.737 13.6893 163.65 13.6836C163.563 13.6778 163.478 13.6548 163.399 13.6158C163.321 13.5768 163.251 13.5227 163.194 13.4565C163.137 13.3903 163.094 13.3135 163.067 13.2304L162.288 10.8583C162.239 10.7019 162.251 10.5332 162.321 10.3851C162.39 10.237 162.513 10.1203 162.664 10.0578C164.524 9.29148 166.523 8.91986 168.534 8.96642C171.104 8.96642 172.958 9.64684 174.138 10.8342C175.376 12.0724 175.933 13.9001 175.933 16.1282V25.0911C175.933 25.1779 175.916 25.2638 175.883 25.3439C175.85 25.4241 175.801 25.4969 175.739 25.5581C175.678 25.6193 175.605 25.6678 175.525 25.7008C175.444 25.7338 175.358 25.7505 175.272 25.7502H171.931C171.786 25.7502 171.647 25.6926 171.544 25.59C171.442 25.4874 171.384 25.3483 171.384 25.2032C171.389 25.0986 171.364 24.9948 171.31 24.9047C171.257 24.8146 171.178 24.7421 171.084 24.6963C170.99 24.6506 170.885 24.6335 170.781 24.6472C170.677 24.6609 170.58 24.7049 170.501 24.7736C169.457 25.5741 168.123 26.0597 166.37 26.0597C163.246 26.025 160.676 24.2319 160.676 20.9499ZM171.477 19.8665V19.4769C171.476 19.3393 171.433 19.2053 171.353 19.0931C171.274 18.9809 171.161 18.896 171.032 18.8499C170.212 18.5561 169.347 18.408 168.475 18.4123C166.464 18.4123 165.225 19.2128 165.225 20.7044V20.7658C165.225 22.0332 166.277 22.7777 167.795 22.7777C169.991 22.7777 171.477 21.5689 171.477 19.8665Z" fill="#1F1646"/>
<path d="M179.471 21.0137V13.8093C179.47 13.6342 179.4 13.4666 179.276 13.3431C179.152 13.2195 178.984 13.1502 178.809 13.1502H178.15C178.064 13.1502 177.978 13.1331 177.898 13.0998C177.817 13.0665 177.745 13.0177 177.683 12.9562C177.622 12.8947 177.574 12.8217 177.541 12.7415C177.508 12.6612 177.491 12.5752 177.491 12.4884V9.78808C177.491 9.70153 177.508 9.61584 177.541 9.53588C177.575 9.45591 177.623 9.38326 177.684 9.32206C177.746 9.26085 177.818 9.2123 177.898 9.17918C177.978 9.14605 178.064 9.12901 178.15 9.12901H178.809C178.984 9.12902 179.152 9.05966 179.276 8.93614C179.4 8.81261 179.47 8.64498 179.471 8.46994V5.44939C179.471 5.30077 179.53 5.15825 179.635 5.05316C179.74 4.94808 179.883 4.88904 180.032 4.88904H183.615C183.764 4.88904 183.906 4.94808 184.011 5.05316C184.116 5.15825 184.175 5.30077 184.175 5.44939V8.46994C184.176 8.64452 184.246 8.81174 184.369 8.93519C184.493 9.05864 184.66 9.12831 184.835 9.12901H187.415C187.589 9.12972 187.757 9.19939 187.88 9.32284C188.003 9.44629 188.073 9.6135 188.074 9.78808V12.4911C188.074 12.6661 188.005 12.8341 187.881 12.9581C187.757 13.0821 187.59 13.1522 187.415 13.1529H184.835C184.66 13.1536 184.493 13.2232 184.369 13.3467C184.246 13.4701 184.176 13.6373 184.175 13.8119V20.2399C184.175 21.3233 184.64 21.8409 185.691 21.8409C186.186 21.8416 186.678 21.7669 187.151 21.6195C187.249 21.5865 187.353 21.5773 187.455 21.5926C187.558 21.6079 187.655 21.6473 187.739 21.7074C187.823 21.7676 187.892 21.8469 187.939 21.9387C187.987 22.0306 188.012 22.1324 188.012 22.2358V24.4185C188.012 24.8935 187.866 25.1176 187.642 25.2324C186.606 25.7554 185.458 26.0148 184.298 25.9875C181.419 25.9955 179.471 24.8508 179.471 21.0137Z" fill="#1F1646"/>
<path d="M189.718 17.5152V17.4538C189.718 12.7175 193.091 8.81909 197.918 8.81909C203.457 8.81909 205.995 13.1204 205.995 17.8247C205.995 18.0168 205.995 18.2249 205.973 18.4411C205.964 18.6093 205.89 18.7675 205.767 18.8831C205.645 18.9988 205.483 19.0631 205.314 19.0628H195.276C195.166 19.0632 195.058 19.0908 194.962 19.143C194.865 19.1953 194.783 19.2707 194.723 19.3624C194.663 19.4541 194.626 19.5593 194.616 19.6686C194.607 19.7779 194.624 19.8878 194.668 19.9887C195.321 21.5177 196.655 22.3128 198.43 22.3128C199.754 22.3399 201.039 21.863 202.024 20.9786C202.146 20.8794 202.299 20.8253 202.456 20.8253C202.614 20.8253 202.766 20.8794 202.889 20.9786L204.652 22.5396C204.719 22.5989 204.773 22.6709 204.812 22.7515C204.85 22.8321 204.871 22.9196 204.875 23.0088C204.879 23.0979 204.865 23.1869 204.833 23.2704C204.802 23.3539 204.754 23.4303 204.692 23.4949C203.174 25.0959 201.09 26.0698 198.368 26.0698C193.387 26.0858 189.718 22.5903 189.718 17.5152ZM200.607 16.1223C200.71 16.1218 200.81 16.0976 200.902 16.0515C200.993 16.0054 201.073 15.9388 201.134 15.8568C201.195 15.7748 201.237 15.6797 201.255 15.579C201.273 15.4783 201.268 15.3747 201.24 15.2764C200.773 13.6461 199.62 12.5948 197.918 12.5948C196.215 12.5948 195.054 13.6194 194.521 15.2551C194.488 15.3543 194.48 15.4597 194.496 15.5628C194.512 15.6659 194.552 15.7637 194.614 15.8483C194.675 15.9329 194.755 16.0018 194.848 16.0494C194.941 16.097 195.043 16.122 195.148 16.1223H200.607Z" fill="#1F1646"/>
<path d="M213.149 21.0774H210.171C209.701 21.0774 209.32 21.4585 209.32 21.9286V24.9064C209.32 25.3765 209.701 25.7576 210.171 25.7576H213.149C213.619 25.7576 214 25.3765 214 24.9064V21.9286C214 21.4585 213.619 21.0774 213.149 21.0774Z" fill="#3BD4AE"/>
<path d="M21.8616 23.2075H19.5748C18.9721 23.2075 18.4835 23.6961 18.4835 24.2989V26.5856C18.4835 27.1884 18.9721 27.677 19.5748 27.677H21.8616C22.4643 27.677 22.9529 27.1884 22.9529 26.5856V24.2989C22.9529 23.6961 22.4643 23.2075 21.8616 23.2075Z" fill="#3BD4AE"/>
<path d="M30.5684 18.9671C30.5684 19.2565 30.4534 19.5341 30.2487 19.7388C30.044 19.9435 29.7665 20.0584 29.477 20.0584H16.4236C16.1346 20.0591 15.8577 20.1744 15.6536 20.379C15.4495 20.5836 15.3349 20.8608 15.3349 21.1498V26.5852C15.3349 26.8746 15.2199 27.1522 15.0152 27.3569C14.8106 27.5615 14.533 27.6765 14.2435 27.6765H1.09135C0.801902 27.6765 0.524316 27.5615 0.319649 27.3569C0.114982 27.1522 0 26.8746 0 26.5852V24.2984C0 24.009 0.114982 23.7314 0.319649 23.5267C0.524316 23.322 0.801902 23.2071 1.09135 23.2071H9.77409C10.0635 23.2071 10.3411 23.0921 10.5458 22.8874C10.7505 22.6827 10.8654 22.4052 10.8654 22.1157V16.6803C10.8654 16.3909 10.9804 16.1133 11.1851 15.9086C11.3897 15.704 11.6673 15.589 11.9568 15.589H29.477C29.7665 15.589 30.044 15.704 30.2487 15.9086C30.4534 16.1133 30.5684 16.3909 30.5684 16.6803V18.9671Z" fill="#3BD4AE"/>
<path d="M18.4835 11.3517V9.06222C18.4835 8.77349 18.5982 8.49657 18.8023 8.29241C19.0065 8.08824 19.2834 7.97354 19.5722 7.97354H25.0102C25.2992 7.97283 25.5761 7.85755 25.7802 7.65296C25.9843 7.44837 26.0989 7.17118 26.0989 6.8822V1.44681C26.0989 1.15737 26.2139 0.879785 26.4185 0.675118C26.6232 0.470451 26.9008 0.355469 27.1902 0.355469H29.477C29.7664 0.355469 30.044 0.470451 30.2487 0.675118C30.4533 0.879785 30.5683 1.15737 30.5683 1.44681V11.3517C30.5676 11.6406 30.4523 11.9175 30.2477 12.1216C30.0431 12.3257 29.766 12.4403 29.477 12.4403H19.5722C19.2834 12.4403 19.0065 12.3256 18.8023 12.1215C18.5982 11.9173 18.4835 11.6404 18.4835 11.3517Z" fill="#3BD4AE"/>
<path d="M56.2084 3.03979H53.8015C53.1679 3.03979 52.6542 3.55349 52.6542 4.18718V6.25513C52.6542 6.88881 53.1679 7.40251 53.8015 7.40251H56.2084C56.8421 7.40251 57.3558 6.88881 57.3558 6.25513V4.18718C57.3558 3.55349 56.8421 3.03979 56.2084 3.03979Z" fill="#3BD4AE"/>
</svg>
