<?xml version="1.0" standalone="no"?>
<!DOCTYPE svg PUBLIC "-//W3C//DTD SVG 20010904//EN"
 "http://www.w3.org/TR/2001/REC-SVG-20010904/DTD/svg10.dtd">
<svg version="1.0" xmlns="http://www.w3.org/2000/svg"
 width="512.000000pt" height="512.000000pt" viewBox="0 0 512.000000 512.000000"
 preserveAspectRatio="xMidYMid meet">

<g transform="translate(0.000000,512.000000) scale(0.100000,-0.100000)"
fill="#000000" stroke="none">
<path d="M2405 4044 c-775 -47 -1443 -320 -1937 -793 -141 -134 -258 -274
-359 -425 -144 -217 -146 -309 -11 -516 148 -227 371 -464 593 -633 431 -326
938 -519 1539 -588 156 -18 537 -15 705 5 682 83 1276 351 1722 779 136 131
269 290 365 437 135 207 133 299 -11 516 -438 659 -1198 1099 -2071 1198 -138
16 -428 26 -535 20z m350 -164 c915 -59 1689 -479 2133 -1158 94 -144 94 -180
0 -324 -345 -529 -901 -908 -1571 -1073 -671 -166 -1413 -101 -2019 174 -448
205 -814 513 -1066 899 -64 98 -78 139 -68 196 4 19 34 77 68 128 310 475 791
831 1372 1017 371 119 757 166 1151 141z"/>
<path d="M2405 3395 c-318 -60 -565 -285 -661 -602 -24 -77 -27 -106 -28 -228
0 -116 3 -153 22 -218 45 -158 114 -278 223 -386 106 -106 217 -172 366 -218
78 -23 104 -26 233 -26 129 0 155 3 233 26 291 89 495 293 584 584 23 78 26
104 26 233 0 129 -3 155 -26 233 -15 49 -39 112 -54 140 -174 345 -547 532
-918 462z m293 -160 c46 -9 115 -34 172 -62 78 -38 109 -61 176 -128 68 -67
90 -98 127 -176 102 -210 102 -408 0 -619 -38 -79 -59 -108 -129 -177 -68 -67
-100 -90 -176 -127 -151 -73 -292 -92 -445 -60 -210 43 -386 180 -478 369 -99
203 -99 406 0 610 135 280 443 431 753 370z"/>
</g>
</svg>
